<svg width="511" height="533" viewBox="0 0 511 533" fill="none" xmlns="http://www.w3.org/2000/svg">
<g clip-path="url(#clip0_428_10)">
<path d="M511 266.5C511.089 329.408 489.755 390.305 450.803 438.333C449.388 440.085 447.947 441.809 446.48 443.524C429.209 463.784 409.091 481.192 386.813 495.155C381.703 498.355 376.481 501.37 371.147 504.201C370.608 504.487 370.06 504.773 369.52 505.05C368.875 505.391 368.221 505.723 367.566 506.055C354.069 512.946 340.009 518.569 325.555 522.856C324.052 523.299 322.546 523.729 321.037 524.147C302.023 529.395 282.49 532.332 262.829 532.899C261.803 532.926 260.796 532.945 259.823 532.963C259.478 532.972 259.142 532.982 258.806 532.982C257.701 532.991 256.605 533 255.5 533C234.781 533.016 214.136 530.406 194.021 525.226C192.005 524.71 189.998 524.166 188 523.594C177.476 520.597 167.149 516.892 157.084 512.501C151.779 510.195 146.569 507.709 141.453 505.041C140.295 504.432 139.137 503.823 137.997 503.196C137.51 502.947 137.033 502.68 136.555 502.422C109.289 487.411 84.8368 467.4 64.3701 443.349C62.9555 441.698 61.5675 440.02 60.1972 438.333C37.6466 410.444 20.8254 378.024 10.7753 343.08C0.725141 308.135 -2.33984 271.411 1.77015 235.181C5.88014 198.95 17.0776 163.986 34.669 132.453C52.2604 100.92 75.8711 73.4899 104.039 51.8615C105.489 50.7457 106.948 49.6391 108.424 48.5602C108.716 48.3481 109.007 48.136 109.299 47.9239C135.241 28.9701 164.358 15.2547 195.144 7.48781C196.894 7.03595 198.645 6.61178 200.413 6.21525C233.758 -1.39273 268.219 -2.02274 301.799 4.36173C303.559 4.70293 305.318 5.05335 307.069 5.43143C337.579 11.9588 366.678 24.284 392.913 41.7916C393.497 42.1789 394.08 42.5662 394.664 42.972C395.839 43.765 397.015 44.5765 398.173 45.3972C432.927 69.7679 461.398 102.684 481.074 141.243C500.751 179.802 511.028 222.819 511 266.5Z" fill="#F2F2F2"/>
<path d="M190.962 404.37L109.299 411.932L108.424 412.015V48.5602C108.716 48.3481 109.007 48.136 109.299 47.9239C126.319 35.5069 144.729 25.3061 164.121 17.5484L168.294 77.5801L168.674 83.0761L172.803 142.61L174.076 160.924L190.812 402.249L190.962 404.37Z" fill="#CCCCCC"/>
<path d="M392.913 41.7916C393.497 42.1789 394.08 42.5662 394.663 42.972V412.015L392.913 411.849L312.134 404.37L312.285 402.249L329.02 160.924L330.293 142.61L334.422 83.0761L334.802 77.5801L339.178 14.6252C358.051 21.4485 376.086 30.5668 392.913 41.7916Z" fill="#CCCCCC"/>
<path d="M392.913 41.7916V417.049C392.913 424.251 388.157 430.107 382.304 430.107H119.908C115.063 430.107 110.952 426.086 109.706 420.6C109.434 419.438 109.297 418.246 109.299 417.049V47.9239C109.007 48.136 108.716 48.3481 108.424 48.5602C106.948 49.6391 105.489 50.7457 104.039 51.8615V417.049C103.961 422.52 105.919 427.809 109.503 431.804C111.382 433.857 113.758 435.342 116.381 436.101C117.53 436.427 118.717 436.592 119.908 436.59H382.304C383.498 436.591 384.688 436.427 385.84 436.101C392.895 434.118 398.173 426.335 398.173 417.049V45.3972C397.015 44.5765 395.839 43.765 394.664 42.972C394.08 42.5662 393.497 42.1789 392.913 41.7916Z" fill="#CCCCCC"/>
<path d="M395.545 77.5838H106.669V83.0788H395.545V77.5838Z" fill="#CCCCCC"/>
<path d="M195.144 7.48782C196.894 7.03597 198.645 6.61179 200.413 6.21527V155.428H195.144V7.48782Z" fill="#CCCCCC"/>
<path d="M301.799 4.36176C303.559 4.70295 305.318 5.05337 307.069 5.43145V155.428H301.799V4.36176Z" fill="#CCCCCC"/>
<path d="M428.471 402.249H82.5203C76.2317 402.249 70.2007 404.855 65.754 409.493C61.3073 414.131 58.8092 420.422 58.8092 426.981C58.8092 433.54 61.3073 439.831 65.754 444.469C70.2007 449.107 76.2317 451.713 82.5203 451.713H428.471C431.838 451.714 435.167 450.965 438.234 449.516C441.302 448.067 444.038 445.952 446.259 443.312C447.264 442.119 448.158 440.828 448.929 439.458C449.525 438.407 450.042 437.309 450.476 436.175C451.92 432.423 452.46 428.358 452.048 424.338C451.636 420.318 450.284 416.464 448.112 413.116C445.94 409.767 443.014 407.025 439.589 405.13C436.165 403.236 432.347 402.247 428.471 402.249Z" fill="#CCCCCC"/>
<path d="M395.545 142.609H108.425V160.926H395.545V142.609Z" fill="#CCCCCC"/>
<path d="M249.351 137.114H254.619C255.888 137.114 257.144 137.374 258.316 137.881C259.487 138.387 260.552 139.129 261.449 140.064C262.346 141 263.057 142.11 263.543 143.333C264.028 144.555 264.278 145.865 264.278 147.188H239.693C239.693 144.516 240.71 141.954 242.522 140.064C244.333 138.175 246.79 137.114 249.351 137.114Z" fill="#CCCCCC"/>
<path d="M450.803 438.333C443.123 447.825 434.815 456.745 425.942 465.029H85.0576C76.1845 456.745 67.8775 447.825 60.1972 438.333H450.803Z" fill="#3F3D56"/>
<path d="M284.038 345.869H226.644C226.334 345.866 226.027 345.915 225.733 346.017C225.11 346.217 224.565 346.621 224.178 347.169C223.792 347.717 223.584 348.38 223.585 349.06V443.635H287.106V349.06C287.106 348.64 287.026 348.225 286.872 347.837C286.717 347.449 286.491 347.097 286.206 346.801C285.921 346.505 285.583 346.27 285.211 346.11C284.839 345.95 284.441 345.868 284.038 345.869ZM262.316 392.53C262.318 394.064 261.833 395.555 260.937 396.772C260.082 397.952 258.893 398.823 257.538 399.261C256.183 399.699 254.731 399.683 253.385 399.214C252.04 398.746 250.869 397.849 250.038 396.649C249.207 395.45 248.758 394.009 248.754 392.53V381.556C248.771 379.692 249.493 377.909 250.763 376.597C252.032 375.285 253.748 374.549 255.535 374.549C257.323 374.549 259.038 375.285 260.308 376.597C261.578 377.909 262.3 379.692 262.316 381.556V392.53Z" fill="#2F2E41"/>
<path d="M223.39 440.61V449.73C223.39 450.203 223.569 450.657 223.889 450.992C224.209 451.327 224.643 451.517 225.096 451.519H285.594C286.047 451.515 286.48 451.325 286.8 450.99C287.119 450.655 287.299 450.203 287.3 449.73V440.61H223.39Z" fill="#3F3D56"/>
<path d="M379.077 198.28H133.744C131.636 198.282 129.615 199.157 128.124 200.71C126.633 202.264 125.792 204.371 125.787 206.57V379.251C125.789 381.451 126.628 383.561 128.12 385.117C129.611 386.673 131.634 387.548 133.744 387.55H379.077C381.187 387.548 383.21 386.673 384.702 385.117C386.193 383.561 387.032 381.451 387.034 379.251V206.57C387.029 204.371 386.189 202.264 384.697 200.71C383.206 199.157 381.185 198.282 379.077 198.28Z" fill="#3F3D56"/>
<path d="M377.026 204.274H135.786C134.658 204.276 133.576 204.746 132.779 205.579C131.982 206.412 131.534 207.541 131.534 208.718V377.121C131.536 378.296 131.984 379.423 132.782 380.255C133.579 381.086 134.659 381.554 135.786 381.556H377.026C378.153 381.554 379.234 381.086 380.031 380.255C380.828 379.423 381.277 378.296 381.279 377.121V208.718C381.278 207.541 380.831 206.412 380.033 205.579C379.236 204.746 378.155 204.276 377.026 204.274Z" fill="#F9E8D9"/>
<path d="M332.627 451.372L330.399 440.334C330.307 439.883 330.108 439.465 329.821 439.115C329.534 438.766 329.167 438.497 328.755 438.333C328.457 438.21 328.139 438.148 327.818 438.148H188.743C188.422 438.148 188.104 438.21 187.806 438.333C187.393 438.497 187.027 438.766 186.74 439.115C186.452 439.465 186.254 439.883 186.161 440.334L183.933 451.372C183.853 451.772 183.859 452.187 183.951 452.585C184.044 452.983 184.22 453.354 184.467 453.672C184.714 453.99 185.027 454.246 185.381 454.423C185.735 454.599 186.122 454.691 186.515 454.691H330.037C330.431 454.694 330.82 454.602 331.175 454.425C331.53 454.248 331.843 453.989 332.088 453.668C332.336 453.351 332.513 452.98 332.606 452.583C332.699 452.186 332.707 451.772 332.627 451.372Z" fill="#2F2E41"/>
<path d="M193.751 440.136H190.194C189.955 440.136 189.762 440.338 189.762 440.586V442.452C189.762 442.701 189.955 442.903 190.194 442.903H193.751C193.989 442.903 194.183 442.701 194.183 442.452V440.586C194.183 440.338 193.989 440.136 193.751 440.136Z" fill="#3F3D56"/>
<path d="M202.592 440.136H199.035C198.796 440.136 198.603 440.338 198.603 440.586V442.452C198.603 442.701 198.796 442.903 199.035 442.903H202.592C202.83 442.903 203.024 442.701 203.024 442.452V440.586C203.024 440.338 202.83 440.136 202.592 440.136Z" fill="#3F3D56"/>
<path d="M211.433 440.136H207.876C207.637 440.136 207.444 440.338 207.444 440.586V442.452C207.444 442.701 207.637 442.903 207.876 442.903H211.433C211.671 442.903 211.864 442.701 211.864 442.452V440.586C211.864 440.338 211.671 440.136 211.433 440.136Z" fill="#3F3D56"/>
<path d="M220.274 440.136H216.716C216.478 440.136 216.285 440.338 216.285 440.586V442.452C216.285 442.701 216.478 442.903 216.716 442.903H220.274C220.512 442.903 220.705 442.701 220.705 442.452V440.586C220.705 440.338 220.512 440.136 220.274 440.136Z" fill="#3F3D56"/>
<path d="M229.114 440.136H225.557C225.319 440.136 225.126 440.338 225.126 440.586V442.452C225.126 442.701 225.319 442.903 225.557 442.903H229.114C229.353 442.903 229.546 442.701 229.546 442.452V440.586C229.546 440.338 229.353 440.136 229.114 440.136Z" fill="#3F3D56"/>
<path d="M237.955 440.136H234.398C234.16 440.136 233.966 440.338 233.966 440.586V442.452C233.966 442.701 234.16 442.903 234.398 442.903H237.955C238.194 442.903 238.387 442.701 238.387 442.452V440.586C238.387 440.338 238.194 440.136 237.955 440.136Z" fill="#3F3D56"/>
<path d="M246.796 440.136H243.239C243 440.136 242.807 440.338 242.807 440.586V442.452C242.807 442.701 243 442.903 243.239 442.903H246.796C247.034 442.903 247.228 442.701 247.228 442.452V440.586C247.228 440.338 247.034 440.136 246.796 440.136Z" fill="#3F3D56"/>
<path d="M255.637 440.136H252.08C251.841 440.136 251.648 440.338 251.648 440.586V442.452C251.648 442.701 251.841 442.903 252.08 442.903H255.637C255.875 442.903 256.068 442.701 256.068 442.452V440.586C256.068 440.338 255.875 440.136 255.637 440.136Z" fill="#3F3D56"/>
<path d="M264.478 440.136H260.92C260.682 440.136 260.489 440.338 260.489 440.586V442.452C260.489 442.701 260.682 442.903 260.92 442.903H264.478C264.716 442.903 264.909 442.701 264.909 442.452V440.586C264.909 440.338 264.716 440.136 264.478 440.136Z" fill="#3F3D56"/>
<path d="M273.319 440.136H269.761C269.523 440.136 269.33 440.338 269.33 440.586V442.452C269.33 442.701 269.523 442.903 269.761 442.903H273.319C273.557 442.903 273.75 442.701 273.75 442.452V440.586C273.75 440.338 273.557 440.136 273.319 440.136Z" fill="#3F3D56"/>
<path d="M282.159 440.136H278.602C278.364 440.136 278.171 440.338 278.171 440.586V442.452C278.171 442.701 278.364 442.903 278.602 442.903H282.159C282.398 442.903 282.591 442.701 282.591 442.452V440.586C282.591 440.338 282.398 440.136 282.159 440.136Z" fill="#3F3D56"/>
<path d="M291 440.136H287.443C287.205 440.136 287.011 440.338 287.011 440.586V442.452C287.011 442.701 287.205 442.903 287.443 442.903H291C291.239 442.903 291.432 442.701 291.432 442.452V440.586C291.432 440.338 291.239 440.136 291 440.136Z" fill="#3F3D56"/>
<path d="M299.841 440.136H296.284C296.045 440.136 295.852 440.338 295.852 440.586V442.452C295.852 442.701 296.045 442.903 296.284 442.903H299.841C300.079 442.903 300.273 442.701 300.273 442.452V440.586C300.273 440.338 300.079 440.136 299.841 440.136Z" fill="#3F3D56"/>
<path d="M308.682 440.136H305.125C304.886 440.136 304.693 440.338 304.693 440.586V442.452C304.693 442.701 304.886 442.903 305.125 442.903H308.682C308.92 442.903 309.113 442.701 309.113 442.452V440.586C309.113 440.338 308.92 440.136 308.682 440.136Z" fill="#3F3D56"/>
<path d="M317.523 440.136H313.965C313.727 440.136 313.534 440.338 313.534 440.586V442.452C313.534 442.701 313.727 442.903 313.965 442.903H317.523C317.761 442.903 317.954 442.701 317.954 442.452V440.586C317.954 440.338 317.761 440.136 317.523 440.136Z" fill="#3F3D56"/>
<path d="M326.364 440.136H322.806C322.568 440.136 322.375 440.338 322.375 440.586V442.452C322.375 442.701 322.568 442.903 322.806 442.903H326.364C326.602 442.903 326.795 442.701 326.795 442.452V440.586C326.795 440.338 326.602 440.136 326.364 440.136Z" fill="#3F3D56"/>
<path d="M193.647 444.747H190.089C189.851 444.747 189.658 444.948 189.658 445.197V447.063C189.658 447.312 189.851 447.513 190.089 447.513H193.647C193.885 447.513 194.078 447.312 194.078 447.063V445.197C194.078 444.948 193.885 444.747 193.647 444.747Z" fill="#3F3D56"/>
<path d="M202.487 444.747H198.93C198.692 444.747 198.499 444.948 198.499 445.197V447.063C198.499 447.312 198.692 447.513 198.93 447.513H202.487C202.726 447.513 202.919 447.312 202.919 447.063V445.197C202.919 444.948 202.726 444.747 202.487 444.747Z" fill="#3F3D56"/>
<path d="M211.328 444.747H207.771C207.533 444.747 207.339 444.948 207.339 445.197V447.063C207.339 447.312 207.533 447.513 207.771 447.513H211.328C211.567 447.513 211.76 447.312 211.76 447.063V445.197C211.76 444.948 211.567 444.747 211.328 444.747Z" fill="#3F3D56"/>
<path d="M220.169 444.747H216.612C216.374 444.747 216.18 444.948 216.18 445.197V447.063C216.18 447.312 216.374 447.513 216.612 447.513H220.169C220.407 447.513 220.601 447.312 220.601 447.063V445.197C220.601 444.948 220.407 444.747 220.169 444.747Z" fill="#3F3D56"/>
<path d="M229.01 444.747H225.453C225.214 444.747 225.021 444.948 225.021 445.197V447.063C225.021 447.312 225.214 447.513 225.453 447.513H229.01C229.248 447.513 229.442 447.312 229.442 447.063V445.197C229.442 444.948 229.248 444.747 229.01 444.747Z" fill="#3F3D56"/>
<path d="M237.851 444.747H234.294C234.055 444.747 233.862 444.948 233.862 445.197V447.063C233.862 447.312 234.055 447.513 234.294 447.513H237.851C238.089 447.513 238.282 447.312 238.282 447.063V445.197C238.282 444.948 238.089 444.747 237.851 444.747Z" fill="#3F3D56"/>
<path d="M246.692 444.747H243.134C242.896 444.747 242.703 444.948 242.703 445.197V447.063C242.703 447.312 242.896 447.513 243.134 447.513H246.692C246.93 447.513 247.123 447.312 247.123 447.063V445.197C247.123 444.948 246.93 444.747 246.692 444.747Z" fill="#3F3D56"/>
<path d="M255.532 444.747H251.975C251.737 444.747 251.544 444.948 251.544 445.197V447.063C251.544 447.312 251.737 447.513 251.975 447.513H255.532C255.771 447.513 255.964 447.312 255.964 447.063V445.197C255.964 444.948 255.771 444.747 255.532 444.747Z" fill="#3F3D56"/>
<path d="M264.373 444.747H260.816C260.578 444.747 260.384 444.948 260.384 445.197V447.063C260.384 447.312 260.578 447.513 260.816 447.513H264.373C264.612 447.513 264.805 447.312 264.805 447.063V445.197C264.805 444.948 264.612 444.747 264.373 444.747Z" fill="#3F3D56"/>
<path d="M273.214 444.747H269.657C269.418 444.747 269.225 444.948 269.225 445.197V447.063C269.225 447.312 269.418 447.513 269.657 447.513H273.214C273.452 447.513 273.646 447.312 273.646 447.063V445.197C273.646 444.948 273.452 444.747 273.214 444.747Z" fill="#3F3D56"/>
<path d="M282.055 444.747H278.498C278.259 444.747 278.066 444.948 278.066 445.197V447.063C278.066 447.312 278.259 447.513 278.498 447.513H282.055C282.293 447.513 282.486 447.312 282.486 447.063V445.197C282.486 444.948 282.293 444.747 282.055 444.747Z" fill="#3F3D56"/>
<path d="M290.896 444.747H287.339C287.1 444.747 286.907 444.948 286.907 445.197V447.063C286.907 447.312 287.1 447.513 287.339 447.513H290.896C291.134 447.513 291.327 447.312 291.327 447.063V445.197C291.327 444.948 291.134 444.747 290.896 444.747Z" fill="#3F3D56"/>
<path d="M299.737 444.747H296.179C295.941 444.747 295.748 444.948 295.748 445.197V447.063C295.748 447.312 295.941 447.513 296.179 447.513H299.737C299.975 447.513 300.168 447.312 300.168 447.063V445.197C300.168 444.948 299.975 444.747 299.737 444.747Z" fill="#3F3D56"/>
<path d="M308.577 444.747H305.02C304.782 444.747 304.589 444.948 304.589 445.197V447.063C304.589 447.312 304.782 447.513 305.02 447.513H308.577C308.816 447.513 309.009 447.312 309.009 447.063V445.197C309.009 444.948 308.816 444.747 308.577 444.747Z" fill="#3F3D56"/>
<path d="M317.418 444.747H313.861C313.623 444.747 313.429 444.948 313.429 445.197V447.063C313.429 447.312 313.623 447.513 313.861 447.513H317.418C317.657 447.513 317.85 447.312 317.85 447.063V445.197C317.85 444.948 317.657 444.747 317.418 444.747Z" fill="#3F3D56"/>
<path d="M326.259 444.747H322.702C322.463 444.747 322.27 444.948 322.27 445.197V447.063C322.27 447.312 322.463 447.513 322.702 447.513H326.259C326.497 447.513 326.691 447.312 326.691 447.063V445.197C326.691 444.948 326.497 444.747 326.259 444.747Z" fill="#3F3D56"/>
<path d="M267.025 450.28H232.525C232.287 450.28 232.094 450.481 232.094 450.73V452.596C232.094 452.845 232.287 453.046 232.525 453.046H267.025C267.264 453.046 267.457 452.845 267.457 452.596V450.73C267.457 450.481 267.264 450.28 267.025 450.28Z" fill="#3F3D56"/>
<path d="M364.904 227.472H139.177C138.942 227.466 138.719 227.365 138.554 227.19C138.39 227.015 138.298 226.78 138.298 226.535C138.298 226.291 138.39 226.056 138.554 225.881C138.719 225.706 138.942 225.605 139.177 225.599H364.904C365.138 225.605 365.362 225.706 365.526 225.881C365.69 226.056 365.782 226.291 365.782 226.535C365.782 226.78 365.69 227.015 365.526 227.19C365.362 227.365 365.138 227.466 364.904 227.472Z" fill="#3F3D56"/>
<path d="M154.542 220.819C157.448 220.819 159.803 218.307 159.803 215.209C159.803 212.111 157.448 209.6 154.542 209.6C151.637 209.6 149.281 212.111 149.281 215.209C149.281 218.307 151.637 220.819 154.542 220.819Z" fill="#3F3D56"/>
<path d="M172.715 220.819C175.621 220.819 177.976 218.307 177.976 215.209C177.976 212.111 175.621 209.6 172.715 209.6C169.81 209.6 167.455 212.111 167.455 215.209C167.455 218.307 169.81 220.819 172.715 220.819Z" fill="#3F3D56"/>
<path d="M190.889 220.819C193.794 220.819 196.149 218.307 196.149 215.209C196.149 212.111 193.794 209.6 190.889 209.6C187.983 209.6 185.628 212.111 185.628 215.209C185.628 218.307 187.983 220.819 190.889 220.819Z" fill="#3F3D56"/>
<path d="M353.96 210.987H341.053C340.798 210.993 340.555 211.103 340.377 211.294C340.198 211.484 340.098 211.74 340.098 212.006C340.098 212.272 340.198 212.528 340.377 212.718C340.555 212.909 340.798 213.019 341.053 213.025H353.96C354.217 213.021 354.462 212.912 354.642 212.721C354.823 212.531 354.924 212.274 354.924 212.006C354.924 211.738 354.823 211.481 354.642 211.29C354.462 211.1 354.217 210.991 353.96 210.987Z" fill="#3F3D56"/>
<path d="M353.96 214.814H341.053C340.797 214.82 340.554 214.93 340.376 215.12C340.197 215.31 340.097 215.566 340.097 215.833C340.097 216.099 340.197 216.355 340.376 216.545C340.554 216.736 340.797 216.846 341.053 216.852H353.96C354.217 216.848 354.463 216.74 354.644 216.549C354.824 216.358 354.926 216.101 354.926 215.833C354.926 215.565 354.824 215.307 354.644 215.117C354.463 214.926 354.217 214.817 353.96 214.814Z" fill="#3F3D56"/>
<path d="M353.96 218.641H341.053C340.798 218.647 340.555 218.757 340.377 218.947C340.198 219.138 340.098 219.393 340.098 219.66C340.098 219.926 340.198 220.181 340.377 220.372C340.555 220.562 340.798 220.672 341.053 220.679H353.96C354.217 220.675 354.462 220.566 354.642 220.375C354.823 220.184 354.924 219.927 354.924 219.66C354.924 219.392 354.823 219.135 354.642 218.944C354.462 218.753 354.217 218.644 353.96 218.641Z" fill="#3F3D56"/>
<path d="M158.64 249.231H154.002C152.596 249.231 151.456 250.42 151.456 251.887C151.456 253.354 152.596 254.543 154.002 254.543H158.64C160.046 254.543 161.186 253.354 161.186 251.887C161.186 250.42 160.046 249.231 158.64 249.231Z" fill="#E6E6E6"/>
<path d="M211.685 249.231H207.047C205.641 249.231 204.501 250.42 204.501 251.887C204.501 253.354 205.641 254.543 207.047 254.543H211.685C213.091 254.543 214.231 253.354 214.231 251.887C214.231 250.42 213.091 249.231 211.685 249.231Z" fill="#E6E6E6"/>
<path d="M226.714 249.231H222.076C220.67 249.231 219.53 250.42 219.53 251.887C219.53 253.354 220.67 254.543 222.076 254.543H226.714C228.121 254.543 229.261 253.354 229.261 251.887C229.261 250.42 228.121 249.231 226.714 249.231Z" fill="#E6E6E6"/>
<path d="M197.257 248.788H168.43C167.024 248.788 165.884 249.977 165.884 251.444C165.884 252.911 167.024 254.1 168.43 254.1H197.257C198.663 254.1 199.803 252.911 199.803 251.444C199.803 249.977 198.663 248.788 197.257 248.788Z" fill="#E6E6E6"/>
<path d="M267.983 248.788H239.157C237.751 248.788 236.611 249.977 236.611 251.444C236.611 252.911 237.751 254.1 239.157 254.1H267.983C269.389 254.1 270.529 252.911 270.529 251.444C270.529 249.977 269.389 248.788 267.983 248.788Z" fill="#E6E6E6"/>
<path d="M172.785 261.219H168.147C166.741 261.219 165.601 262.408 165.601 263.875C165.601 265.342 166.741 266.531 168.147 266.531H172.785C174.192 266.531 175.332 265.342 175.332 263.875C175.332 262.408 174.192 261.219 172.785 261.219Z" fill="#E6E6E6"/>
<path d="M225.83 261.219H221.192C219.786 261.219 218.646 262.408 218.646 263.875C218.646 265.342 219.786 266.531 221.192 266.531H225.83C227.237 266.531 228.377 265.342 228.377 263.875C228.377 262.408 227.237 261.219 225.83 261.219Z" fill="#E6E6E6"/>
<path d="M240.86 261.219H236.222C234.816 261.219 233.676 262.408 233.676 263.875C233.676 265.342 234.816 266.531 236.222 266.531H240.86C242.266 266.531 243.406 265.342 243.406 263.875C243.406 262.408 242.266 261.219 240.86 261.219Z" fill="#E6E6E6"/>
<path d="M211.402 260.776H182.576C181.17 260.776 180.03 261.965 180.03 263.432C180.03 264.899 181.17 266.088 182.576 266.088H211.402C212.808 266.088 213.948 264.899 213.948 263.432C213.948 261.965 212.808 260.776 211.402 260.776Z" fill="#E6E6E6"/>
<path d="M282.129 260.776H253.302C251.896 260.776 250.756 261.965 250.756 263.432C250.756 264.899 251.896 266.088 253.302 266.088H282.129C283.535 266.088 284.675 264.899 284.675 263.432C284.675 261.965 283.535 260.776 282.129 260.776Z" fill="#E6E6E6"/>
<path d="M186.931 273.207H182.293C180.887 273.207 179.747 274.396 179.747 275.863C179.747 277.329 180.887 278.519 182.293 278.519H186.931C188.337 278.519 189.477 277.329 189.477 275.863C189.477 274.396 188.337 273.207 186.931 273.207Z" fill="#E6E6E6"/>
<path d="M239.976 273.207H235.338C233.931 273.207 232.792 274.396 232.792 275.863C232.792 277.329 233.931 278.519 235.338 278.519H239.976C241.382 278.519 242.522 277.329 242.522 275.863C242.522 274.396 241.382 273.207 239.976 273.207Z" fill="#E6E6E6"/>
<path d="M255.005 273.207H250.367C248.961 273.207 247.821 274.396 247.821 275.863C247.821 277.329 248.961 278.519 250.367 278.519H255.005C256.411 278.519 257.551 277.329 257.551 275.863C257.551 274.396 256.411 273.207 255.005 273.207Z" fill="#E6E6E6"/>
<path d="M225.547 272.764H196.721C195.315 272.764 194.175 273.953 194.175 275.42C194.175 276.887 195.315 278.076 196.721 278.076H225.547C226.953 278.076 228.093 276.887 228.093 275.42C228.093 273.953 226.953 272.764 225.547 272.764Z" fill="#E6E6E6"/>
<path d="M296.274 272.764H267.448C266.042 272.764 264.902 273.953 264.902 275.42C264.902 276.887 266.042 278.076 267.448 278.076H296.274C297.68 278.076 298.82 276.887 298.82 275.42C298.82 273.953 297.68 272.764 296.274 272.764Z" fill="#E6E6E6"/>
<path d="M201.076 285.195H196.438C195.032 285.195 193.892 286.384 193.892 287.851C193.892 289.317 195.032 290.506 196.438 290.506H201.076C202.482 290.506 203.622 289.317 203.622 287.851C203.622 286.384 202.482 285.195 201.076 285.195Z" fill="#E6E6E6"/>
<path d="M254.121 285.195H249.483C248.077 285.195 246.937 286.384 246.937 287.851C246.937 289.317 248.077 290.506 249.483 290.506H254.121C255.527 290.506 256.667 289.317 256.667 287.851C256.667 286.384 255.527 285.195 254.121 285.195Z" fill="#E6E6E6"/>
<path d="M269.15 285.195H264.512C263.106 285.195 261.966 286.384 261.966 287.851C261.966 289.317 263.106 290.506 264.512 290.506H269.15C270.557 290.506 271.697 289.317 271.697 287.851C271.697 286.384 270.557 285.195 269.15 285.195Z" fill="#E6E6E6"/>
<path d="M239.693 284.752H210.866C209.46 284.752 208.32 285.941 208.32 287.408C208.32 288.875 209.46 290.064 210.866 290.064H239.693C241.099 290.064 242.239 288.875 242.239 287.408C242.239 285.941 241.099 284.752 239.693 284.752Z" fill="#E6E6E6"/>
<path d="M211.685 332.864H207.047C205.641 332.864 204.501 334.053 204.501 335.52C204.501 336.986 205.641 338.175 207.047 338.175H211.685C213.091 338.175 214.231 336.986 214.231 335.52C214.231 334.053 213.091 332.864 211.685 332.864Z" fill="#E6E6E6"/>
<path d="M226.714 332.864H222.076C220.67 332.864 219.53 334.053 219.53 335.52C219.53 336.986 220.67 338.175 222.076 338.175H226.714C228.121 338.175 229.261 336.986 229.261 335.52C229.261 334.053 228.121 332.864 226.714 332.864Z" fill="#E6E6E6"/>
<path d="M267.983 333.307H239.157C237.751 333.307 236.611 334.496 236.611 335.962C236.611 337.429 237.751 338.618 239.157 338.618H267.983C269.389 338.618 270.529 337.429 270.529 335.962C270.529 334.496 269.389 333.307 267.983 333.307Z" fill="#E6E6E6"/>
<path d="M158.64 332.864H154.002C152.596 332.864 151.456 334.053 151.456 335.52C151.456 336.986 152.596 338.175 154.002 338.175H158.64C160.046 338.175 161.186 336.986 161.186 335.52C161.186 334.053 160.046 332.864 158.64 332.864Z" fill="#E6E6E6"/>
<path d="M197.257 333.307H168.43C167.024 333.307 165.884 334.496 165.884 335.962C165.884 337.429 167.024 338.618 168.43 338.618H197.257C198.663 338.618 199.803 337.429 199.803 335.962C199.803 334.496 198.663 333.307 197.257 333.307Z" fill="#E6E6E6"/>
<path d="M172.785 320.876H168.147C166.741 320.876 165.601 322.065 165.601 323.532C165.601 324.998 166.741 326.187 168.147 326.187H172.785C174.192 326.187 175.332 324.998 175.332 323.532C175.332 322.065 174.192 320.876 172.785 320.876Z" fill="#E6E6E6"/>
<path d="M225.83 320.876H221.192C219.786 320.876 218.646 322.065 218.646 323.532C218.646 324.998 219.786 326.187 221.192 326.187H225.83C227.237 326.187 228.377 324.998 228.377 323.532C228.377 322.065 227.237 320.876 225.83 320.876Z" fill="#E6E6E6"/>
<path d="M240.86 320.876H236.222C234.816 320.876 233.676 322.065 233.676 323.532C233.676 324.998 234.816 326.187 236.222 326.187H240.86C242.266 326.187 243.406 324.998 243.406 323.532C243.406 322.065 242.266 320.876 240.86 320.876Z" fill="#E6E6E6"/>
<path d="M211.402 321.319H182.576C181.17 321.319 180.03 322.508 180.03 323.974C180.03 325.441 181.17 326.63 182.576 326.63H211.402C212.808 326.63 213.948 325.441 213.948 323.974C213.948 322.508 212.808 321.319 211.402 321.319Z" fill="#E6E6E6"/>
<path d="M186.931 308.888H182.293C180.887 308.888 179.747 310.077 179.747 311.544C179.747 313.011 180.887 314.2 182.293 314.2H186.931C188.337 314.2 189.477 313.011 189.477 311.544C189.477 310.077 188.337 308.888 186.931 308.888Z" fill="#E6E6E6"/>
<path d="M239.976 308.888H235.338C233.931 308.888 232.792 310.077 232.792 311.544C232.792 313.011 233.931 314.2 235.338 314.2H239.976C241.382 314.2 242.522 313.011 242.522 311.544C242.522 310.077 241.382 308.888 239.976 308.888Z" fill="#E6E6E6"/>
<path d="M255.005 308.888H250.367C248.961 308.888 247.821 310.077 247.821 311.544C247.821 313.011 248.961 314.2 250.367 314.2H255.005C256.411 314.2 257.551 313.011 257.551 311.544C257.551 310.077 256.411 308.888 255.005 308.888Z" fill="#E6E6E6"/>
<path d="M225.547 309.331H196.721C195.315 309.331 194.175 310.52 194.175 311.987C194.175 313.453 195.315 314.642 196.721 314.642H225.547C226.953 314.642 228.093 313.453 228.093 311.987C228.093 310.52 226.953 309.331 225.547 309.331Z" fill="#E6E6E6"/>
<path d="M201.076 296.9H196.438C195.032 296.9 193.892 298.089 193.892 299.556C193.892 301.023 195.032 302.212 196.438 302.212H201.076C202.482 302.212 203.622 301.023 203.622 299.556C203.622 298.089 202.482 296.9 201.076 296.9Z" fill="#E6E6E6"/>
<path d="M254.121 296.9H249.483C248.077 296.9 246.937 298.089 246.937 299.556C246.937 301.023 248.077 302.212 249.483 302.212H254.121C255.527 302.212 256.667 301.023 256.667 299.556C256.667 298.089 255.527 296.9 254.121 296.9Z" fill="#E6E6E6"/>
<path d="M269.15 296.9H264.512C263.106 296.9 261.966 298.089 261.966 299.556C261.966 301.023 263.106 302.212 264.512 302.212H269.15C270.557 302.212 271.697 301.023 271.697 299.556C271.697 298.089 270.557 296.9 269.15 296.9Z" fill="#E6E6E6"/>
<path d="M239.693 297.343H210.866C209.46 297.343 208.32 298.532 208.32 299.999C208.32 301.465 209.46 302.654 210.866 302.654H239.693C241.099 302.654 242.239 301.465 242.239 299.999C242.239 298.532 241.099 297.343 239.693 297.343Z" fill="#E6E6E6"/>
<path d="M367.611 506.046C367.071 506.332 366.523 506.617 365.984 506.894C352.015 514.179 340.841 518.319 325.555 522.856C324.264 507.825 323.017 481.406 321.806 465.029C321.488 460.778 321.17 457.209 320.86 454.691C320.782 453.353 320.52 452.033 320.082 450.772L320.135 454.691L320.268 465.029L321.037 524.147C302.023 529.395 282.49 532.332 262.829 532.899C261.804 532.926 260.796 532.945 259.823 532.963C259.478 532.972 259.142 532.982 258.806 532.982C257.701 532.991 256.605 533 255.5 533C234.781 533.016 214.136 530.406 194.021 525.226C194.454 510.352 194.887 484.228 195.303 465.029C195.391 461.275 195.471 457.781 195.559 454.691C195.727 448.089 195.904 443.331 196.072 441.735C195.923 442.018 195.807 442.318 195.727 442.63C194.908 446.606 194.35 450.636 194.056 454.691C193.747 457.781 193.437 461.275 193.128 465.029C191.484 484.975 189.768 512.095 188 523.594C177.476 520.597 167.149 516.892 157.084 512.501C151.779 510.195 146.569 507.709 141.453 505.041C142.426 498.401 143.442 490.959 144.486 483.241C145.299 477.256 146.139 471.106 146.996 465.029C148.323 455.641 149.684 446.438 151.063 438.333C153.079 426.492 155.148 416.976 157.199 412.605C159.144 408.455 161.089 404.361 162.972 400.442C163.626 399.068 164.28 397.712 164.917 396.393C165.067 396.08 165.217 395.776 165.368 395.471C166.72 392.696 168.029 390.04 169.275 387.55C170.345 385.42 171.362 383.41 172.326 381.556C174.659 377.056 176.64 373.469 178.107 371.2C184.243 361.493 193.377 354.266 203.993 350.72L204.259 350.646L204.444 350.729L222.524 344.938L225.167 344.089L226.944 343.518L233.203 338.547L236.607 335.845L239.799 333.309L246.04 328.358L284.684 330.838L292.207 349.733L309.058 356.16L309.35 356.022L309.606 355.911L309.871 355.985C320.486 359.535 329.619 366.761 335.757 376.466C336.588 377.766 337.596 379.481 338.736 381.556C339.709 383.317 340.77 385.328 341.919 387.55C343.555 390.713 345.341 394.282 347.232 398.145C347.648 398.994 348.072 399.861 348.497 400.737C349.284 402.36 350.082 404.016 350.893 405.707C352.776 409.626 354.721 413.72 356.666 417.879C358.354 421.485 360.061 428.899 361.74 438.333C363.128 446.171 364.507 455.411 365.842 465.029C367.593 477.496 365.727 492.426 367.31 503.897C367.407 504.626 367.513 505.336 367.611 506.046Z" fill="#3F3D56"/>
<path d="M256.044 313.276C280.865 313.276 300.987 292.287 300.987 266.397C300.987 240.507 280.865 219.518 256.044 219.518C231.222 219.518 211.1 240.507 211.1 266.397C211.1 292.287 231.222 313.276 256.044 313.276Z" fill="#A0616A"/>
<path d="M330.161 204.274C329.273 202.11 328.09 200.092 326.651 198.28C319.826 189.584 307.413 185.757 294.674 196.048C292.221 195.477 289.665 195.63 287.292 196.491C286.171 196.914 285.121 197.518 284.18 198.28C282.251 199.849 280.746 201.915 279.812 204.274C279.313 205.52 278.986 206.833 278.84 208.174C275.691 206.468 272.358 205.158 268.912 204.274C260.456 202.08 251.614 202.08 243.158 204.274C240.449 204.989 237.839 206.067 235.396 207.483C231.258 209.972 228.88 213.117 228.456 216.612C222.488 216.962 216.282 220.236 211.658 225.603C211.137 226.202 210.633 226.829 210.164 227.475C206.276 232.782 204.186 239.285 204.223 245.964V247.135H205.346C208.422 247.132 211.47 247.752 214.319 248.961C216.166 249.734 217.915 250.741 219.527 251.958C220.581 252.738 221.577 253.601 222.506 254.54C224.659 256.714 226.484 259.217 227.917 261.963C231.59 268.902 232.863 276.947 231.524 284.749C231.216 286.555 230.767 288.332 230.18 290.061C229.345 292.528 228.244 294.888 226.9 297.097C226.847 297.18 226.803 297.263 226.75 297.346C226.157 298.332 225.591 299.338 225.061 300.352C224.663 301.108 224.292 301.883 223.947 302.657C222.939 304.813 222.088 307.045 221.401 309.334C220.171 313.382 219.445 317.578 219.244 321.819C219.182 322.945 219.164 324.07 219.2 325.195C219.252 328.094 219.557 330.983 220.11 333.826C220.19 334.213 220.269 334.591 220.349 334.979L220.994 337.92L222.524 344.938L223.585 349.77L224.566 354.251L226.016 352.084C226.511 351.347 227.757 349.078 229.428 345.869C230.534 343.776 231.815 341.277 233.203 338.547C235.14 334.72 237.261 330.451 239.339 326.191C240.179 324.466 241.01 322.751 241.814 321.073C243.335 317.891 244.767 314.82 245.996 312.091C247.128 309.573 248.091 307.342 248.807 305.553C249.029 306.724 249.214 307.914 249.356 309.112C249.515 310.33 249.63 311.565 249.692 312.801C249.709 312.985 249.718 313.179 249.727 313.364L249.762 314.12L249.771 314.341L250.708 314.47C256.113 315.074 261.562 315.117 266.975 314.599H266.984C274.155 314.036 281.191 312.258 287.813 309.334C291.575 307.632 295.087 305.384 298.245 302.657C299.721 301.383 301.099 299.989 302.365 298.489C302.684 298.111 302.993 297.733 303.294 297.346C305.043 295.103 306.541 292.659 307.758 290.061C308.573 288.346 309.265 286.571 309.827 284.749C313.222 274.025 313.027 260.644 309.243 244.747C310.266 244.541 311.244 244.148 312.134 243.585C314.91 241.842 316.838 238.384 317.439 234.16L318.394 234.428C321.779 232.783 324.794 230.414 327.243 227.475C327.728 226.876 328.183 226.252 328.605 225.603C332.928 218.963 332.963 210.996 330.161 204.274Z" fill="#2F2E41"/>
<path opacity="0.2" d="M182.404 438.292L189.916 408.053L196.549 434.146L182.404 438.292Z" fill="black"/>
<path d="M382.304 418.589C379.616 457.209 382.401 474.213 367.566 506.055C354.069 512.946 340.009 518.568 325.555 522.856C324.052 523.299 322.546 523.729 321.037 524.147C302.023 529.395 282.49 532.332 262.829 532.899C261.803 532.926 260.796 532.945 259.823 532.963C259.478 532.972 259.142 532.982 258.806 532.982C257.701 532.991 256.605 533 255.5 533C234.781 533.016 214.136 530.406 194.021 525.226C192.005 524.71 189.998 524.166 188 523.594C177.476 520.597 167.149 516.892 157.084 512.501C151.779 510.195 146.569 507.709 141.453 505.041C140.295 504.432 139.137 503.823 137.997 503.196C132.135 492.444 128.802 479.368 128.731 463.655C132.789 436.58 373.339 395.241 382.304 418.589Z" fill="#2F2E41"/>
<path opacity="0.2" d="M382.297 425.203C382.434 422.812 382.588 420.343 382.767 417.771C373.802 394.422 133.252 435.762 129.194 462.836C129.205 465.318 129.307 467.727 129.478 470.079C139.305 443.357 367.831 404.066 382.297 425.203Z" fill="black"/>
<path d="M144.19 315.514C144.249 314.677 144.135 313.838 143.856 313.052C143.578 312.265 143.141 311.55 142.575 310.955C142.01 310.359 141.328 309.897 140.577 309.599C139.826 309.302 139.022 309.175 138.22 309.229C137.921 309.24 137.624 309.279 137.331 309.344L102.178 317.628C101.393 317.826 100.656 318.195 100.015 318.708C99.3743 319.222 98.8437 319.87 98.4575 320.611C97.942 320.631 97.4301 320.709 96.9304 320.843C95.8365 321.101 94.8021 321.582 93.8863 322.258C92.9706 322.933 92.1913 323.79 91.5931 324.78C90.9949 325.77 90.5895 326.873 90.3999 328.026C90.2104 329.179 90.2405 330.36 90.4884 331.501C90.7364 332.642 91.1974 333.721 91.8451 334.676C92.4928 335.631 93.3145 336.444 94.2634 337.068C96.1796 338.328 98.4974 338.742 100.707 338.22C101.964 337.916 103.141 337.322 104.15 336.482L116.062 371.469C116.657 372.565 117.576 373.432 118.682 373.938C119.788 374.444 121.022 374.564 122.198 374.278L145.051 368.891C146.218 368.606 147.269 367.942 148.052 366.995C148.835 366.048 149.311 364.867 149.41 363.62L144.19 315.514ZM100.179 335.729C98.6013 336.101 96.9467 335.804 95.5781 334.905C94.2096 334.006 93.2388 332.577 92.8785 330.932C92.5183 329.287 92.7981 327.561 93.6566 326.131C94.515 324.701 95.8821 323.685 97.458 323.304C97.569 323.275 97.6802 323.304 97.7912 323.275C97.7828 324.331 98.0414 325.37 98.5409 326.287L102.9 334.223C102.141 334.974 101.201 335.495 100.179 335.729Z" fill="#2F2E41"/>
<path d="M138.22 309.229C138.553 313.863 130.945 319.192 120.755 321.306C111.397 323.304 103.011 321.914 100.651 318.265C101.126 317.971 101.641 317.756 102.178 317.628L137.331 309.344C137.624 309.279 137.921 309.24 138.22 309.229Z" fill="#3F3D56"/>
<path d="M113.908 426.866L133.653 416.568L117.199 370.23L112.863 346.861C112.299 343.825 110.982 340.996 109.042 338.658C107.102 336.319 104.608 334.552 101.808 333.534C99.0089 332.516 96.0023 332.282 93.0889 332.856C90.1756 333.429 87.4576 334.79 85.2066 336.803C81.8708 339.785 79.7764 344.003 79.3652 348.565C78.9541 353.127 80.2584 357.678 83.003 361.257L99.0997 382.244L113.908 426.866Z" fill="#A0616A"/>
<path d="M133.653 407.987L107.327 421.717L127.306 487.013C128.74 491.702 131.312 495.925 134.772 499.272C138.232 502.619 142.462 504.977 147.052 506.117C152.712 507.523 158.655 507.011 164.018 504.658C169.381 502.304 173.885 498.229 176.879 493.025L229.857 398.308C233.612 391.781 234.771 383.982 233.087 376.576C231.402 369.17 227.008 362.745 220.844 358.672C217.528 356.482 213.807 355.045 209.924 354.453C206.04 353.862 202.081 354.13 198.303 355.241C194.526 356.351 191.015 358.279 187.999 360.898C184.983 363.517 182.529 366.77 180.798 370.444L148.462 442.312L133.653 407.987Z" fill="#3F3D56"/>
<path d="M125.51 348.978C125.461 348.978 125.413 348.969 125.367 348.953L119.619 346.889C119.549 346.864 119.487 346.822 119.437 346.765C119.387 346.709 119.352 346.641 119.334 346.566C119.316 346.492 119.316 346.414 119.334 346.34C119.352 346.266 119.387 346.198 119.437 346.141L123.712 341.287C123.751 341.242 123.798 341.205 123.851 341.179C123.904 341.154 123.961 341.139 124.019 341.136C124.077 341.134 124.135 341.143 124.19 341.164C124.245 341.184 124.295 341.216 124.338 341.257C124.38 341.298 124.415 341.348 124.44 341.403C124.464 341.458 124.478 341.517 124.48 341.578C124.483 341.639 124.474 341.699 124.453 341.756C124.433 341.813 124.403 341.865 124.363 341.91L120.545 346.246L125.654 348.081C125.753 348.117 125.837 348.187 125.89 348.281C125.944 348.375 125.964 348.485 125.946 348.593C125.929 348.701 125.876 348.798 125.796 348.869C125.716 348.939 125.615 348.978 125.51 348.978Z" fill="#F9E8D9"/>
<path d="M133.389 347.296C133.301 347.296 133.215 347.268 133.142 347.217C133.069 347.166 133.012 347.093 132.979 347.008C132.946 346.922 132.938 346.829 132.957 346.739C132.975 346.649 133.018 346.567 133.082 346.503L136.967 342.585L131.748 340.342C131.694 340.319 131.645 340.285 131.604 340.242C131.563 340.2 131.53 340.149 131.508 340.093C131.485 340.037 131.474 339.977 131.474 339.917C131.473 339.856 131.485 339.796 131.507 339.74C131.529 339.684 131.562 339.633 131.603 339.59C131.644 339.547 131.692 339.513 131.746 339.49C131.8 339.467 131.857 339.455 131.915 339.455C131.973 339.455 132.031 339.467 132.085 339.49L137.928 342.002C137.996 342.031 138.055 342.077 138.102 342.136C138.148 342.195 138.18 342.266 138.194 342.341C138.207 342.416 138.203 342.494 138.181 342.567C138.159 342.64 138.12 342.706 138.067 342.759L133.696 347.166C133.614 347.249 133.504 347.296 133.389 347.296Z" fill="#F9E8D9"/>
<path d="M126.717 351.798C126.673 351.799 126.629 351.792 126.587 351.778C126.532 351.76 126.48 351.731 126.435 351.692C126.39 351.654 126.353 351.606 126.326 351.553C126.299 351.499 126.282 351.441 126.277 351.38C126.271 351.32 126.277 351.259 126.294 351.201L130.374 337.369C130.409 337.253 130.487 337.155 130.59 337.098C130.694 337.042 130.815 337.03 130.927 337.066C131.039 337.102 131.132 337.183 131.187 337.29C131.242 337.398 131.254 337.524 131.219 337.641L127.14 351.473C127.112 351.568 127.056 351.65 126.98 351.708C126.903 351.767 126.811 351.798 126.717 351.798Z" fill="#F9E8D9"/>
</g>
<defs>
<clipPath id="clip0_428_10">
<rect width="511" height="533" fill="white"/>
</clipPath>
</defs>
</svg>
