<svg width="120" height="351" viewBox="0 0 120 351" fill="none" xmlns="http://www.w3.org/2000/svg">
<rect width="68" height="351" rx="30" fill="#35696C"/>
<path d="M119 85C119 113.719 95.8904 137.5 68 137.5C54.5 109 18 113.719 18 85C18 56.2812 53 52.5 68 33C95.8904 33 119 56.2812 119 85Z" fill="white"/>
<ellipse cx="66.5" cy="83" rx="30.5" ry="33" fill="#35696C"/>
<path d="M83.3241 65H55.8274C54.5125 65 53.4454 66.0819 53.4454 67.4142V96.0867C53.4454 97.4209 54.5125 98.5042 55.8274 98.5042H83.3241C84.64 98.5042 85.7143 97.4209 85.7143 96.0867V67.4142C85.7143 66.0819 84.64 65 83.3241 65ZM63.0158 93.5502H58.2274V77.5617H63.0158V93.5502ZM60.6216 75.3756C59.0875 75.3756 57.8474 74.0847 57.8474 72.4933C57.8474 70.9042 59.0875 69.6133 60.6216 69.6133C62.1522 69.6133 63.3954 70.9042 63.3954 72.4933C63.3954 74.0847 62.1522 75.3756 60.6216 75.3756ZM80.9412 93.5502H76.1604V85.7754C76.1604 83.9205 76.1255 81.5357 73.6726 81.5357C71.1816 81.5357 70.802 83.5557 70.802 85.6409V93.5507H66.0177V77.5617H70.6093V79.7451H70.6747C71.3138 78.4887 72.8753 77.1629 75.204 77.1629C80.0471 77.1629 80.9416 80.4733 80.9416 84.78L80.9412 93.5502Z" fill="black"/>
<path d="M29.9528 194.377C29.9528 194.517 29.8032 194.63 29.6145 194.63C29.3998 194.651 29.2502 194.538 29.2502 194.377C29.2502 194.236 29.3998 194.124 29.5885 194.124C29.7837 194.103 29.9528 194.215 29.9528 194.377ZM27.9295 194.06C27.884 194.201 28.0141 194.363 28.2093 194.405C28.3784 194.475 28.5736 194.405 28.6126 194.264C28.6517 194.124 28.5281 193.962 28.3329 193.899C28.1637 193.849 27.9751 193.92 27.9295 194.06ZM30.8051 193.941C30.6164 193.99 30.4863 194.124 30.5058 194.285C30.5253 194.426 30.6945 194.517 30.8897 194.468C31.0783 194.419 31.2085 194.285 31.1889 194.145C31.1694 194.011 30.9938 193.92 30.8051 193.941ZM35.0859 167C26.0624 167 19.1597 174.403 19.1597 184.154C19.1597 191.951 23.7007 198.623 30.187 200.971C31.0198 201.133 31.3126 200.578 31.3126 200.121C31.3126 199.685 31.293 197.28 31.293 195.804C31.293 195.804 26.739 196.859 25.7826 193.709C25.7826 193.709 25.0409 191.663 23.974 191.136C23.974 191.136 22.4841 190.032 24.0781 190.053C24.0781 190.053 25.698 190.194 26.5893 191.867C28.0141 194.581 30.4017 193.8 31.3321 193.336C31.4817 192.211 31.9046 191.431 32.373 190.967C28.7362 190.531 25.067 189.962 25.067 183.198C25.067 181.265 25.5614 180.295 26.6023 179.057C26.4332 178.6 25.8802 176.716 26.7715 174.284C28.1312 173.827 31.2605 176.182 31.2605 176.182C32.5617 175.788 33.9604 175.584 35.3462 175.584C36.7319 175.584 38.1307 175.788 39.4318 176.182C39.4318 176.182 42.5611 173.82 43.9208 174.284C44.8121 176.723 44.2592 178.6 44.09 179.057C45.1309 180.302 45.7685 181.272 45.7685 183.198C45.7685 189.983 41.9366 190.524 38.2998 190.967C38.8984 191.522 39.4058 192.577 39.4058 194.229C39.4058 196.598 39.3863 199.53 39.3863 200.107C39.3863 200.564 39.6856 201.119 40.5118 200.957C47.0176 198.623 51.4286 191.951 51.4286 184.154C51.4286 174.403 44.1095 167 35.0859 167ZM25.4833 191.248C25.3988 191.318 25.4183 191.48 25.5289 191.614C25.633 191.726 25.7826 191.775 25.8672 191.684C25.9518 191.614 25.9322 191.452 25.8216 191.318C25.7175 191.206 25.5679 191.157 25.4833 191.248ZM24.7807 190.679C24.7352 190.77 24.8002 190.883 24.9303 190.953C25.0344 191.023 25.1645 191.002 25.2101 190.904C25.2556 190.812 25.1906 190.7 25.0605 190.629C24.9303 190.587 24.8262 190.608 24.7807 190.679ZM26.8886 193.182C26.7845 193.273 26.8235 193.484 26.9732 193.617C27.1228 193.779 27.3115 193.8 27.396 193.688C27.4806 193.596 27.4416 193.385 27.3115 193.252C27.1683 193.09 26.9732 193.069 26.8886 193.182ZM26.1469 192.148C26.0428 192.218 26.0428 192.401 26.1469 192.563C26.251 192.725 26.4267 192.795 26.5113 192.725C26.6153 192.633 26.6153 192.45 26.5113 192.289C26.4202 192.127 26.251 192.057 26.1469 192.148Z" fill="white"/>
<g clip-path="url(#clip0_5_734)">
<rect width="32" height="34" transform="translate(21 254)" fill="white"/>
<path d="M44.2 285.167C38.7564 285.159 33.5378 282.858 29.6886 278.768C25.8393 274.679 23.6737 269.134 23.6667 263.35C23.6667 261.622 24.3129 259.964 25.4631 258.742C26.6133 257.52 28.1734 256.833 29.8 256.833C30.1445 256.831 30.4884 256.864 30.8267 256.933C31.1538 256.984 31.4753 257.069 31.7867 257.188C32.0057 257.269 32.2008 257.41 32.3528 257.596C32.5048 257.783 32.6084 258.008 32.6534 258.25L34.48 266.75C34.5293 266.981 34.5233 267.221 34.4628 267.449C34.4022 267.676 34.289 267.884 34.1334 268.053C33.96 268.252 33.9467 268.266 32.3067 269.173C33.62 272.234 35.9243 274.692 38.8 276.1C39.6667 274.343 39.68 274.329 39.8667 274.145C40.0259 273.98 40.2216 273.859 40.4359 273.795C40.6502 273.731 40.8762 273.724 41.0934 273.777L49.0934 275.718C49.3138 275.772 49.5175 275.885 49.6855 276.046C49.8534 276.207 49.98 276.411 50.0534 276.638C50.1659 276.975 50.2507 277.321 50.3067 277.673C50.3603 278.029 50.3871 278.389 50.3867 278.749C50.3621 280.47 49.6977 282.111 48.5387 283.313C47.3796 284.516 45.8199 285.182 44.2 285.167Z" fill="#35696C"/>
</g>
<defs>
<clipPath id="clip0_5_734">
<rect width="32" height="34" fill="white" transform="translate(21 254)"/>
</clipPath>
</defs>
</svg>
