<svg width="242" height="34" viewBox="0 0 242 34" fill="none" xmlns="http://www.w3.org/2000/svg">
<g clip-path="url(#clip0_107_1593)">
<rect width="32" height="34" fill="white"/>
<path d="M23.2 31.1665C17.7564 31.159 12.5378 28.8581 8.68855 24.7683C4.83934 20.6785 2.67374 15.1337 2.66669 9.34984C2.66669 7.62151 3.31288 5.96397 4.4631 4.74186C5.61332 3.51975 7.17336 2.83317 8.80002 2.83317C9.14447 2.83038 9.48835 2.8636 9.82669 2.93234C10.1538 2.98376 10.4753 3.06917 10.7867 3.18734C11.0057 3.26898 11.2008 3.40994 11.3528 3.59629C11.5048 3.78264 11.6084 4.00791 11.6534 4.24984L13.48 12.7498C13.5293 12.9806 13.5233 13.2207 13.4628 13.4484C13.4022 13.676 13.289 13.884 13.1334 14.0532C12.96 14.2515 12.9467 14.2657 11.3067 15.1723C12.62 18.2335 14.9243 20.6919 17.8 22.0998C18.6667 20.3432 18.68 20.329 18.8667 20.1448C19.0259 19.9795 19.2216 19.8592 19.4359 19.7948C19.6502 19.7305 19.8762 19.7242 20.0934 19.7765L28.0934 21.7173C28.3138 21.7717 28.5175 21.8847 28.6855 22.0458C28.8534 22.2069 28.98 22.4107 29.0534 22.6382C29.1659 22.9744 29.2507 23.3205 29.3067 23.6723C29.3603 24.0284 29.3871 24.3884 29.3867 24.749C29.3621 26.4699 28.6977 28.1107 27.5387 29.313C26.3796 30.5154 24.8199 31.1817 23.2 31.1665Z" fill="black"/>
</g>
<defs>
<clipPath id="clip0_107_1593">
<rect width="32" height="34" fill="white"/>
</clipPath>
</defs>
</svg>
