<svg width="1451" height="5670" viewBox="0 0 1451 5670" fill="none" xmlns="http://www.w3.org/2000/svg">
<rect width="1451" height="5670" fill="#A0C3C5"/>
<mask id="mask0_5_646" style="mask-type:alpha" maskUnits="userSpaceOnUse" x="0" y="0" width="1451" height="5670">
<rect width="1451" height="5670" fill="#A0C3C5"/>
</mask>
<g mask="url(#mask0_5_646)">
<g filter="url(#filter0_f_5_646)">
<path fill-rule="evenodd" clip-rule="evenodd" d="M1382.39 -2180.75C1555.61 -2027.1 1570.14 -899.124 1670.3 -221.414C1739.34 245.774 1863.02 556.668 1870.66 1123.2C1878.59 1711.8 1796.09 2221.47 1708.99 2648.53C1619.16 3089 1512.11 3571.95 1382.39 3517.36C1257.03 3464.61 1211.4 2743.17 1109.77 2396.37C967.562 1911.08 717.996 1927.2 680.794 1123.2C643.722 322.048 835.88 -269.943 959.464 -851.927C1083.84 -1437.64 1208.86 -2334.67 1382.39 -2180.75Z" fill="#0A1A1B"/>
<path fill-rule="evenodd" clip-rule="evenodd" d="M306.79 2815.25C423.388 2738.91 553.257 2724.69 640.709 3117.64C730.899 3522.89 765.203 4188.49 745.531 4786.63C728.018 5319.1 628.169 5631.89 546.424 5984.37C473.755 6297.73 400.936 6585.28 306.79 6678.51C184.887 6799.22 44.6121 6971.46 -51.2534 6576.21C-150.684 6166.25 -173.066 5422.27 -152.069 4786.63C-133.627 4228.31 -35.6377 3873.12 50.2206 3504.25C126.758 3175.42 206.718 2880.77 306.79 2815.25Z" fill="#E5EBEC"/>
<path fill-rule="evenodd" clip-rule="evenodd" d="M277.478 -1070.81C399.43 -1189.35 545.765 -1366.55 636.309 -967.932C727.367 -567.051 677.498 120.252 680.556 703.735C683.75 1313.29 742.358 2008.1 654.268 2459.07C565.048 2915.82 407.718 2882.34 277.478 2767.24C169.512 2671.81 107.073 2216.67 20.8543 1899.25C-87.2784 1501.15 -289.083 1345.18 -283.013 703.735C-276.885 56.2629 -72.5327 -26.5165 42.5285 -390.808C121.802 -641.793 183.65 -979.619 277.478 -1070.81Z" fill="#35696C"/>
<path fill-rule="evenodd" clip-rule="evenodd" d="M1218.24 3158.91C1318.75 3244.5 1427.58 3260.45 1496.9 3575.02C1564.07 3879.86 1563.27 4320.47 1565.28 4733.87C1567.36 5159.9 1557.34 5566.2 1508.41 5940.61C1433.39 6514.75 1374.79 7445.4 1218.24 7389.65C1058.1 7332.61 1078.67 6256.88 973.842 5750.22C885.488 5323.2 703.643 5278.18 668.735 4733.87C629.359 4119.88 670.252 3338.81 796.066 2978.21C917.156 2631.14 1074.16 3036.22 1218.24 3158.91Z" fill="#91A8AA"/>
</g>
</g>
<defs>
<filter id="filter0_f_5_646" x="-683.146" y="-2598.23" width="2954.33" height="10390.3" filterUnits="userSpaceOnUse" color-interpolation-filters="sRGB">
<feFlood flood-opacity="0" result="BackgroundImageFix"/>
<feBlend mode="normal" in="SourceGraphic" in2="BackgroundImageFix" result="shape"/>
<feGaussianBlur stdDeviation="200" result="effect1_foregroundBlur_5_646"/>
</filter>
</defs>
</svg>
